@startuml
hide empty members

package eu.tailoringexpert {
    package domain {
        abstract class ResourceMapper
    }
}

package screeningsheet {

    interface ScreeningSheetService {
    }

    class ScreeningSheetController {
        +postScreeningSheet(file : MultipartFile) : ResponseEntity<EntityModel<ScreeningSheetResource>>
    }
    ScreeningSheetController --> "1" ResourceMapper : mapper
    ScreeningSheetController --> "1" ScreeningSheetService : screeningSheetService

}
@enduml
