@startuml Ebene3.png
skinparam componentStyle uml2

package domain {

    class Logo {
        name : String
        url : String
    }

    class Reference {
      text : String
      changed: Boolean
      issue : String
      releaseDate : String


    }
    changed --> "0..1" Logo : logo

    class Document {
        number : String
        title : String
        issue : String
        revision : String
        description : String
        applicable : Boolean

    }

    interface "Comparator<Document>"  as documentComparator
    class DocumentNumberComparator {
    }
    documentComparator <|-- DocumentNumberComparator

    abstract class Requirement{
      text: String
      position : String
      hasDRD() : boolean
      hasApplicableDocument () : boolean
    }
    Requirement --> "0..1" Reference : reference
    Requirement --> "0..*" DRD : drds
    Requirement --> "0..*" Document : applicableDocuments


    class DRD {
        number : String
        title : String
        subtitle : String
        deliveryDate : String
        action : String
    }

    enum LevelType {
        DEFAULT("")
        EXCLUDE("-")
        EQUAL(+)
        {static} fromString(id : String) : LevelType
    }

    class Identifier {
        type : String
        level : int
        limitations : Collection<String>
    }
    Identifier --> "1" LevelType : levelType

    enum Phase {
        ZERO("0")
        A("A")
        B("B")
        C("C")
        D("D")
        E("E")
        F("F")
    }

    class BaseRequirement {
    }
    Requirement <|-- BaseRequirement
    BaseRequirement --> "0..*" Identifier : identifiers
    BaseRequirement --> "0...*" Phase : phases


    class Chapter<T extends Requirement> {
        name : String
        position : int
        number : String
    }
    Chapter --> "0..*" Chapter : chapters
    Chapter --> "0..*" Requirement : requirements

    class TailoringRequirement {
        selected : Boolean
        selectionChanged : ZonedDateTime
        textChanged : ZonedDateTime
        +isChanged() : boolean
        +getChangeDate() : ZonedDateTime
    }
    Requirement <|-- TailoringRequirement

    class Catalog<T extends Requirement> {
        version : String
    }
    Catalog --> "1" Chapter : toc


    class SelectionVector {
        levels : Map<String, Integer>
        getLevel(type : String) : int
    }

    class SelectionVectorProfile {
        name: String
        levels : Map<String, Integer>
    }

    class ScreeningSheet {
        +{static} PROJECT : String = "project"
        +{static} PHASE : String = "phase"
        data : byte[]
        project : String
    }
    ScreeningSheet --> "1" SelectionVector : selectionsVector
    ScreeningSheet -->  "0..*" ScreeningSheetParameter : parameters
    ScreeningSheet -->  "0..*" Phase : phases

    class File {
        name : String
        daten:  byte[]
        hash : String
        +getType() : String
    }

    class Note {
        number : Integer
        text : String
        creationTimestamp : ZonedDateTime
    }

    enum TailoringState {
        CREATED
        ACTIVE
    }

    class Tailoring {
        name : String
        identifier : String
        issue : String
    }

    Tailoring --> "1" SelectionVector : selectionVector
    Tailoring --> "1" ScreeningSheet : screeningSheet
    Tailoring --> "1..*" Phase : phases
    Tailoring --> "1" "Catalog<TailoringRequirement>" : catalog
    Tailoring --> "1" TailoringState : state
    Tailoring --> "0..*" File : files
    Tailoring --> "1..*" DocumentSignature : signatures
    Tailoring --> "0..*" Note : notes

    enum ProjectState {
        ONGOING
        COMPLETED
    }

    class Project {
        identifier : String
        creationTimestamp : ZonedDateTime
    }
    Project --> "1" ProjectState : state
    Project --> "1..*" Tailoring : tailorings
    Project --> "1" ScreeningSheet : screeningSheet
    Project --> "1" "Catalog<BaseRequirement>" : catalog

    enum DatenTyp {
        SKALAR
        MATRIX
    }

    class Parameter {
        parameterType : String
        name : String
        label: String
        value : Object
        position : int
    }
    Parameter --> "1" DatenType : datenType

    enum DocumentSignatureState {
        PREPARED("Prepared")
        AGREED("Agreed")
        RELEASED("Released")
    }

    class DocumentSignature {
        faculty : String
        signee : String
        applicable : Boolean
        position : int
    }
    DocumentSignature --> "1" DocumentSignatureState : status

    class TailoringInformation<<Projection>> {
        name : String
        catalogVersion : String
        issue: String
    }
    TailoringInformation --> "1.." Phase : phases

    class ProjectInformation<<Projection>> {
        identifier : String
        catalogVersion : Sting
        creationTimestamp : ZonedDateTime

    ProjectInformation --> "1" ProjectState : state
    ProjectInformation --> "1..*" TailoringInformation : tailorings

    class ScreeningSheetParameter {
        category : String
        name : String
        value : Object
    }


    interface "Predicate<T>" as RequirementSelectionPredicate {
        test(t: T) : boolean
    }


    interface "BiPredicate<T, U>" as Applicl+ableBiPredicate {
        test(t: T, u : U) : boolean
    }
    class DRDApplicablePredicate<String, Collection<Phase>> {
    }
    AppliclableBiPredicate <|.. DRDApplicablePredicate


    interface "BiFunction<T, U, R>" as DRDProviderBiFunction {
        apply(var1 : T, var2 : U) : R
    }
    class "DRDProvider<Chapter<T exends Requirement>, Map<DRD, Set<String>>" as DRDProvider{
    }
    DRDProviderBiFunction <|.. DRDProvider
    DRDProvider --> "1" RequirementSelectionPredicate : selectionPredicate
    DRDProvider --> "1" AppliclableBiPredicate : predicate

    interface "Function<Catalog<TailoringRequirement>, Collection<Document>>" as applicableDocumentProvider {
    }

    class ApplicableDocumentProvider {
    }
    applicableDocumentProvider <|-- ApplicableDocumentProvider
    ApplicableDocumentProvider --> "1" documentComparator : numberComparator

    class MatrixFile {
        name : String
        description : String
        catalogueVersion : String
        data : byte[]
        hash : String
        createdTimestamp : ZonedDateTime
    }

    class MatrixFileMeta {
        name : String
        description : String
        catalogueVersion : String
        hash : String
        createdTimestamp : ZonedDateTime
    }
}
hide empty members
@enduml
